<?xml version="1.0" encoding="utf-8"?>
<!-- Generator: Adobe Illustrator 27.1.1, SVG Export Plug-In . SVG Version: 6.00 Build 0)  -->
<svg version="1.1" id="Layer_1" xmlns="http://www.w3.org/2000/svg" xmlns:xlink="http://www.w3.org/1999/xlink" x="0px" y="0px"
	 viewBox="0 0 512 512" style="enable-background:new 0 0 512 512;" xml:space="preserve">
<style type="text/css">
	.st0{fill:#FFFFFF;}
	.st1{fill:#7B606D;}
	.st2{fill:#2B5F2F;}
	.st3{fill:#F9F2F6;stroke:#508E74;stroke-width:2;}
</style>
<g>
	<g>
		<g>
			<g>
				<path class="st0" d="M105.7,185.1c24.5-53.7,80.2-91.2,139.1-94.1c7.8,0.1,15.5,0,23.3,0c44.1,2.1,86.2,24.4,114.8,57.7
					c22.9,26.8,36.5,61,39.3,96.1c2.8,47-15,95.1-49,127.8c-27.6,28.7-66.3,45.1-105.7,48.4c-7.6-0.4-15.3-0.4-22.9-0.1
					c-13.9-0.7-27.4-4.2-40.8-7.8c-37.9-12.9-71-39.4-91.2-74.1C84.9,293.3,81.7,233.2,105.7,185.1z"/>
			</g>
			<g>
				<path class="st1" d="M267.4,421.1c-6.9-0.4-14.4-0.4-22.9-0.1c-13.6-0.7-26.5-4-40.8-7.8c-19-6.5-36.6-16.2-52.3-28.9
					c-15.9-12.8-29-28.1-39-45.2c-13.6-22.6-21.5-49-22.8-76.2c-1.3-27.5,4.2-54.4,15.9-77.9c12-26.3,31.6-49.2,56.7-66.1
					c25-16.9,53.5-26.6,82.5-28c7.2,0.1,14.6,0,21.7,0h1.6c21.4,1,43.2,6.9,63.3,17.2c19.5,10,37.4,24,51.6,40.6
					c22.5,26.4,36.5,60.5,39.3,96.2c2.8,47.8-15.5,95.6-49,127.9c-13.5,14-29.8,25.3-48.5,33.7C306.8,414.5,287.5,419.5,267.4,421.1
					z M255.9,420.6c4.1,0,7.9,0.1,11.5,0.3c40.8-3.4,79.3-21,105.6-48.3c33.5-32.2,51.8-80,49-127.8c-2.8-35.6-16.8-69.7-39.3-96
					c-29.3-34.1-72.2-55.7-114.8-57.7h-1.6c-7.1,0-14.5,0-21.7,0c-58.8,2.9-114.6,40.7-139,94l0,0C82,232.5,84.7,292.9,112.5,339
					c19.8,34,53,61,91.1,74c14.2,3.8,27.1,7.1,40.7,7.8C248.5,420.7,252.3,420.6,255.9,420.6z"/>
			</g>
		</g>
	</g>
	<g>
		<g>
			<path class="st2" d="M105.7,185.1c24.5-53.7,80.2-91.2,139.1-94.1c7.8,0.1,15.5,0,23.3,0c44.1,2.1,86.2,24.4,114.8,57.7
				c22.9,26.8,36.5,61,39.3,96.1c2.8,47-15,95.1-49,127.8c-27.6,28.7-66.3,45.1-105.7,48.4c-7.6-0.4-15.3-0.4-22.9-0.1
				c-13.9-0.7-27.4-4.2-40.8-7.8c-37.9-12.9-71-39.4-91.2-74.1C84.9,293.3,81.7,233.2,105.7,185.1z"/>
		</g>
		<g>
			<path class="st1" d="M267.4,421.1c-6.9-0.4-14.4-0.4-22.9-0.1c-13.6-0.7-26.5-4-40.8-7.8c-19-6.5-36.6-16.2-52.3-28.9
				c-15.9-12.8-29-28.1-39-45.2c-13.6-22.6-21.5-49-22.8-76.2c-1.3-27.5,4.2-54.4,15.9-77.9c12-26.3,31.6-49.2,56.7-66.1
				c25-16.9,53.5-26.6,82.5-28c7.2,0.1,14.6,0,21.7,0h1.6c21.4,1,43.2,6.9,63.3,17.2c19.5,10,37.4,24,51.6,40.6
				c22.5,26.4,36.5,60.5,39.3,96.2c2.8,47.8-15.5,95.6-49,127.9c-13.5,14-29.8,25.3-48.5,33.7C306.8,414.5,287.5,419.5,267.4,421.1z
				 M255.9,420.6c4.1,0,7.9,0.1,11.5,0.3c40.8-3.4,79.3-21,105.6-48.3c33.5-32.2,51.8-80,49-127.8c-2.8-35.6-16.8-69.7-39.3-96
				c-29.3-34.1-72.2-55.7-114.8-57.7h-1.6c-7.1,0-14.5,0-21.7,0c-58.8,2.9-114.6,40.7-139,94l0,0C82,232.5,84.7,292.9,112.5,339
				c19.8,34,53,61,91.1,74c14.2,3.8,27.1,7.1,40.7,7.8C248.5,420.7,252.3,420.6,255.9,420.6z"/>
		</g>
	</g>
	<g>
		<path class="st3" d="M157.8,145.1c30.2-19.9,64.1-29.9,101.7-29.9c27.3,0,49.6,6.1,66.8,18.4c17.3,12.3,25.9,28.1,25.9,47.5
			c0,25.9-15,43.2-44.9,52v2.1c3,0.8,6.7,1.8,11,3c14.1-3.3,25.2-10,33.2-20.2c8.1-10.2,12.1-22.4,12.1-36.8c0-18-7.4-34-22.3-48
			v-1.1l2.1,1.7c16.6,12.8,24.9,29.3,24.9,49.3c0,27.7-14.3,47-43,57.9c12.4,5.7,22.1,13.8,29,24.4c6.9,10.5,10.4,22.4,10.4,35.6
			c0,18.9-6.9,34.1-20.6,45.4c-13.7,11.4-32,17-54.8,17H153l26.3-22.5v-82.5c-7.5,0-16.3,0.8-26.3,2.3l-1.5-5.5
			c11.3-1.1,20.6-1.7,27.8-1.7v-10.1h-4.8c-7.1,0-16.1,0.5-26.9,1.5l8.4-18.3l3,0.2c5,0.4,8.7,0.6,11.2,0.6c3.8,0,6.8,0.2,9,0.6
			v-71.6L157.8,145.1z M360,257.1c13.6,10.5,20.4,26.5,20.4,48c0,21.6-7.6,39.4-22.7,53.5c-14.7,13.7-36.4,20.6-64.9,20.6H163.3
			L160,374h120.2c26.2,0,45-2.7,56.6-8c25.6-11.9,38.5-32.7,38.5-62.3c0-16.5-5.8-31.5-17.5-44.9L360,257.1z M217.4,142.2v85.9
			c1.4-0.1,2.3-0.2,2.9-0.2l3.4,0.2c0.5,0,1.6,0,3.2,0v-77.9c10.9-5.1,21.6-7.6,32-7.6c11.9,0,21.4,2.2,28.3,6.5
			s12.8,11.7,17.6,22.1l-5.3-3c-9.5-14.3-23.1-21.5-40.8-21.5c-9.9,0-18.8,2.8-26.7,8.4v73.1h8c24.2,0,42.3-4,54.2-12.1
			s17.8-20.4,17.8-37c0-14.6-4.9-26.4-14.8-35.3c-9.8-9-22.8-13.4-38.8-13.4C244.4,130.2,230.7,134.2,217.4,142.2z M217.4,243.7
			v104.9h9.5v-93.5c9-0.6,15.5-1,19.4-1c21.1,0,36.3,2,45.8,5.9s17,11.4,22.6,22.5h-2.3c-6.2-8.8-14-14.8-23.4-18.2
			c-9.4-3.4-23.2-5-41.3-5l-15.6,0.4v88.9h6.1l27.6-1c35.8-2.5,53.7-19.9,53.7-52.2c0-20.2-5.9-34-17.7-41.4s-34-11-66.3-11
			C232.3,243,226.2,243.2,217.4,243.7z"/>
	</g>
</g>
</svg>
